<svg xmlns="http://www.w3.org/2000/svg" width="80" height="80" viewBox="0 0 80 80" fill="none">
  <rect x="4" y="4" width="72" height="72" rx="22" fill="#4ECDC4"/>
  <path d="M24 53c0-7 6-13 16-13s16 6 16 13c0 5-5 9-16 9s-16-4-16-9Z" fill="#FFFDF7" opacity="0.95"/>
  <path d="M40 41c-10-2-16-10-15-22 11-1 18 6 17 18" fill="none" stroke="#FFFDF7" stroke-width="7" stroke-linecap="round" stroke-linejoin="round"/>
  <path d="M42 39c10-1 16-9 15-21-11 0-18 6-18 18" fill="none" stroke="#FFFDF7" stroke-width="7" stroke-linecap="round" stroke-linejoin="round"/>
  <path d="M40 36v18" fill="none" stroke="#FFFDF7" stroke-width="6" stroke-linecap="round"/>
  <path d="M31 52h18" fill="none" stroke="#4ECDC4" stroke-width="5" stroke-linecap="round" opacity="0.55"/>
</svg>
